<?xml version="1.0" encoding="UTF-8"?>
<!DOCTYPE svg PUBLIC "-//W3C//DTD SVG 1.1//EN" "http://www.w3.org/Graphics/SVG/1.1/DTD/svg11.dtd">
<!-- Creator: CorelDRAW 2018 (64-Bit) -->
<svg xmlns="http://www.w3.org/2000/svg" xml:space="preserve" width="297mm" height="80mm" version="1.1" style="shape-rendering:geometricPrecision; text-rendering:geometricPrecision; image-rendering:optimizeQuality; fill-rule:evenodd; clip-rule:evenodd"
viewBox="0 0 29700 8000"
 xmlns:xlink="http://www.w3.org/1999/xlink">
 <defs>
  <style type="text/css">
   <![CDATA[
    .fil0 {fill:#215992}
    .fil1 {fill:#215992;fill-rule:nonzero}
   ]]>
  </style>
 </defs>
 <g id="Слой_x0020_1">
  <metadata id="CorelCorpID_0Corel-Layer"/>
  <path class="fil0" d="M6349.29 1942.24c115.01,0 208.22,93.23 208.22,208.23 0,115 -93.21,208.23 -208.22,208.23 -115,0 -208.23,-93.23 -208.23,-208.23 0,-115 93.23,-208.23 208.23,-208.23zm-1227.45 1129.85l-0.07 -0.07 -457.31 462.79 297.85 291.1 430.13 -435.24c12.46,-12.02 24.67,-24.3 36.64,-36.8 163.1,-158.57 383.43,-259.52 628.83,-259.52 492.86,0 892.4,399.54 892.4,892.4 0,492.86 -399.54,892.39 -892.4,892.39 -75.06,0 -147.95,-9.27 -217.61,-26.73 71.77,136.14 123.24,284.64 150.41,441.48 22.26,1.14 44.66,1.71 67.2,1.71 722.87,0 1308.86,-586 1308.86,-1308.85 0,-722.86 -585.99,-1308.85 -1308.86,-1308.85 -11.25,0 -22.48,0.14 -33.66,0.42l-1.53 0.05c-5.16,0.13 -10.31,0.29 -15.46,0.49l-0.7 0.02 -0.07 0.01 -0.71 0.03c-5.12,0.2 -10.24,0.43 -15.34,0.69l-0.89 0.04 -1.63 0.09c-4.66,0.25 -9.32,0.52 -13.97,0.82l-3.42 0.22c-4.32,0.29 -8.63,0.59 -12.93,0.92l-3.83 0.29c-4.02,0.31 -8.04,0.66 -12.04,1.01l-5.6 0.51 -10.9 1.05 -6.17 0.64 -10.22 1.11 -8.19 0.96 -4.54 0.56 -4.55 0.56 -9.07 1.19 -4.52 0.61c-4.53,0.63 -9.04,1.28 -13.55,1.94l-0.02 0c-4.5,0.67 -9.01,1.36 -13.5,2.08l-4.49 0.72c-26.94,4.39 -53.6,9.59 -79.96,15.59l0 -0.02c-249.27,56.71 -471.47,184.59 -644.15,361.12l-0.23 0.23 -0.23 0.24zm-627.47 634.85l-0.24 0.24 -371.74 -362.8 -255.03 -250.44c-6.69,-6.76 -13.46,-13.44 -20.29,-20.05 -158.11,-161.01 -255.64,-381.72 -255.64,-625.21 0,-492.85 399.54,-892.4 892.4,-892.4 492.85,0 892.39,399.55 892.39,892.4 0,73.22 -8.82,144.38 -25.45,212.47 135.75,-72.58 283.95,-124.93 440.57,-153 0.89,-19.71 1.34,-39.54 1.34,-59.47 0,-722.85 -585.99,-1308.85 -1308.85,-1308.85 -722.86,0 -1308.85,586 -1308.85,1308.85 0,5.53 0.04,11.05 0.1,16.57l0.01 0.6c0.07,5.52 0.18,11.04 0.31,16.55l0 0.15c0.14,5.22 0.3,10.45 0.5,15.65l0.09 2.46c0.19,4.88 0.41,9.76 0.65,14.63l0.04 0.74 0.05 0.87c0.24,4.83 0.52,9.65 0.82,14.47l0.17 2.69c0.31,4.8 0.64,9.59 1,14.37l0.08 0.95 0.06 0.8c0.36,4.64 0.74,9.26 1.14,13.88l0.32 3.67c0.4,4.32 0.81,8.63 1.24,12.95l0.36 3.53c0.42,4.14 0.87,8.27 1.34,12.39l0.48 4.23c0.46,3.98 0.94,7.96 1.44,11.93l0.7 5.48 1.29 9.72 1.2 8.56 0.12 0.83 0.65 4.4 0.65 4.39 0.67 4.39 0.69 4.38 0.7 4.38 0.03 0.19 1.42 8.55 0.74 4.37 0.76 4.36 1.56 8.7 0.81 4.35 0.03 0.17c0.71,3.79 1.42,7.58 2.17,11.37l0.28 1.46 0.87 4.32c1.73,8.65 3.54,17.26 5.45,25.84l-0.02 0c54.18,244.6 176.79,463.46 346.72,635.49l0.74 0.69 1.56 1.59 -0.02 0.02 3.38 3.42 -0.81 0.81 588.97 574.82 54.92 53.6 298.06 290.89 43.49 42.44 35.97 35.11 549.38 536.18c6.44,6.51 12.96,12.92 19.54,19.29 157.84,160.97 255.18,381.48 255.18,624.75 0,492.85 -399.54,892.39 -892.4,892.39 -492.86,0 -892.39,-399.54 -892.39,-892.39 0,-73.21 8.81,-144.36 25.44,-212.45 -135.75,72.58 -283.94,124.93 -440.56,152.98 -0.89,19.71 -1.34,39.54 -1.34,59.47 0,722.85 585.99,1308.85 1308.85,1308.85 722.86,0 1308.85,-586 1308.85,-1308.85 0,-5.54 -0.04,-11.05 -0.1,-16.57l-0.01 -0.6c-0.07,-5.53 -0.18,-11.04 -0.31,-16.55l0 -0.15c-0.14,-5.22 -0.31,-10.42 -0.5,-15.62l-0.1 -2.52c-0.19,-4.88 -0.4,-9.75 -0.64,-14.61l-0.04 -0.74 -0.05 -0.87c-0.24,-4.81 -0.51,-9.62 -0.82,-14.41l-0.18 -2.88c-0.3,-4.61 -0.62,-9.22 -0.96,-13.81l-0.28 -3.54c-0.31,-4.07 -0.65,-8.14 -1,-12.21l-0.37 -4.08c-0.38,-4.26 -0.79,-8.51 -1.21,-12.76l-0.37 -3.62c-0.46,-4.53 -0.96,-9.06 -1.47,-13.58l-0.31 -2.74c-0.49,-4.24 -1,-8.47 -1.53,-12.7l-0.67 -5.2 -1.41 -10.59 -0.91 -6.45 -1.34 -9.13 -1.04 -6.85 -1.5 -9.35 -1.13 -6.83 -1.4 -8.17 -1.64 -9.19 -0.09 -0.46 -0.8 -4.35 -0.22 -1.14c-0.72,-3.88 -1.46,-7.74 -2.23,-11.61l-0.04 -0.25 -0.86 -4.32 -0.12 -0.59 -2.02 -9.88 -1.14 -5.38 -2.17 -9.99 0.01 0c-54.14,-244.47 -176.66,-463.23 -346.46,-635.22l-0.23 -0.22 -2.26 -2.29 -0.1 -0.11 -0.1 -0.1 -0.19 -0.19 -0.1 -0.1 -0.1 -0.1 -0.1 -0.11 -0.09 -0.09 -0.11 -0.1 -0.09 -0.1 -0.1 -0.1 -0.1 -0.1 -0.1 -0.1 -0.1 -0.1 -0.09 -0.1 -0.11 -0.1 -0.09 -0.1 -0.1 -0.1 -0.1 -0.1 -0.1 -0.1 -0.1 -0.1 -0.1 -0.1 -0.1 -0.1 -0.09 -0.1 -0.1 -0.1 -0.1 -0.1 -0.1 -0.1 -0.2 -0.2 -0.1 -0.1 -0.09 -0.09 -1 -1 0.01 0 -586.52 -572.43 -1.93 -1.89 -54.89 -53.57 0.04 -0.03 -297.85 -291.1zm-463.07 468.57l-438.63 443.74c-10.71,10.55 -21.25,21.28 -31.6,32.18 -160.95,157.72 -381.38,254.97 -624.52,254.97 -492.86,0 -892.4,-399.54 -892.4,-892.4 0,-492.86 399.54,-892.4 892.4,-892.4 75.06,0 147.95,9.27 217.6,26.73 -71.77,-136.14 -123.23,-284.65 -150.4,-441.48 -22.26,-1.13 -44.66,-1.7 -67.2,-1.7 -722.87,0 -1308.86,586 -1308.86,1308.85 0,722.85 585.99,1308.85 1308.86,1308.85l1.31 0 0 -0.02c40.03,-0.04 79.63,-1.87 118.74,-5.43l0.67 -0.06c5.14,-0.47 10.29,-0.97 15.42,-1.5l1.31 -0.14c10.69,-1.12 21.34,-2.37 31.95,-3.74l0.65 -0.08 0.84 -0.11c4.94,-0.65 9.86,-1.32 14.78,-2.02l2.13 -0.3c4.49,-0.65 8.97,-1.32 13.44,-2.01l3.76 -0.59c4.07,-0.63 8.12,-1.29 12.17,-1.97l4.19 -0.7c3.83,-0.66 7.65,-1.33 11.47,-2.02l6.29 -1.14 9.44 -1.79 6.63 -1.29 8.48 -1.71 8.85 -1.84 8.16 -1.76 6.39 -1.41c250.9,-56.15 474.59,-184.38 648.24,-361.78l0.03 0.02c2.66,-2.72 5.31,-5.45 7.95,-8.19l0.04 0.04 449.5 -454.88 -298.08 -290.92zm-1400.79 -2207.67c115,0 208.22,93.22 208.22,208.22 0,115.01 -93.22,208.23 -208.22,208.23 -115,0 -208.23,-93.22 -208.23,-208.23 0,-115 93.23,-208.22 208.23,-208.22zm14.91 3676.11c115.01,0 208.23,93.23 208.23,208.23 0,115 -93.22,208.23 -208.23,208.23 -115,0 -208.23,-93.23 -208.23,-208.23 0,-115 93.23,-208.23 208.23,-208.23zm3728 -17.36c115.01,0 208.23,93.23 208.23,208.23 0,115 -93.22,208.22 -208.23,208.22 -115,0 -208.23,-93.22 -208.23,-208.22 0,-115 93.23,-208.23 208.23,-208.23z"/>
  <path class="fil1" d="M9903.03 3481.8l-545.68 0 0 1383.69 -389.78 0 0 -1383.69 -543.24 0 0 -321.56 1478.7 0 0 321.56zm9760.35 -321.56l0 1705.25 -389.77 0 0 -453.11 -360.54 0 -302.07 453.11 -416.57 0 355.67 -514.01c-115.31,-47.1 -203.82,-118.15 -265.53,-213.16 -61.72,-95 -92.58,-209.09 -92.58,-342.26 0,-131.55 30.05,-244.83 90.14,-339.84 60.09,-95 145.35,-168.09 255.79,-219.24 110.43,-51.16 240.36,-76.74 389.77,-76.74l735.69 0zm-725.95 321.56c-112.06,0 -197.73,25.99 -257,77.96 -59.28,51.97 -88.92,129.11 -88.92,231.42 0,99.07 28.42,175.4 85.26,228.99 56.84,53.6 140.48,80.39 250.92,80.39l345.92 0 0 -618.76 -336.18 0zm-7937.8 1412.92c-177.03,0 -336.59,-38.16 -478.69,-114.49 -142.11,-76.33 -253.35,-181.49 -333.74,-315.47 -80.39,-133.99 -120.59,-284.62 -120.59,-451.89 0,-167.28 40.2,-317.91 120.59,-451.9 80.39,-133.98 191.63,-239.14 333.74,-315.47 142.1,-76.33 301.66,-114.49 478.69,-114.49 177.02,0 336.17,38.16 477.47,114.49 141.29,76.33 252.53,181.49 333.74,315.47 81.2,133.99 121.8,284.62 121.8,451.9 0,167.27 -40.6,317.9 -121.8,451.89 -81.21,133.98 -192.45,239.14 -333.74,315.47 -141.3,76.33 -300.45,114.49 -477.47,114.49zm0 -336.17c100.69,0 191.63,-23.15 272.84,-69.43 81.2,-46.29 144.94,-110.84 191.23,-193.67 46.28,-82.83 69.42,-177.02 69.42,-282.58 0,-105.57 -23.14,-199.76 -69.42,-282.59 -46.29,-82.82 -110.03,-147.38 -191.23,-193.67 -81.21,-46.28 -172.15,-69.42 -272.84,-69.42 -100.7,0 -191.64,23.14 -272.84,69.42 -81.21,46.29 -144.95,110.85 -191.24,193.67 -46.28,82.83 -69.42,177.02 -69.42,282.59 0,105.56 23.14,199.75 69.42,282.58 46.29,82.83 110.03,147.38 191.24,193.67 81.2,46.28 172.14,69.43 272.84,69.43zm2078.33 336.17c-173.78,0 -330.9,-37.76 -471.38,-113.27 -140.48,-75.52 -250.92,-180.27 -331.31,-314.26 -80.39,-133.98 -120.58,-285.42 -120.58,-454.32 0,-168.91 40.19,-320.35 120.58,-454.33 80.39,-133.99 190.83,-238.74 331.31,-314.25 140.48,-75.52 298.42,-113.28 473.81,-113.28 147.79,0 281.37,25.98 400.74,77.95 119.36,51.97 219.65,126.68 300.85,224.12l-253.35 233.86c-115.31,-133.17 -258.22,-199.75 -428.75,-199.75 -105.56,0 -199.76,23.14 -282.58,69.42 -82.83,46.29 -147.38,110.85 -193.67,193.67 -46.29,82.83 -69.43,177.02 -69.43,282.59 0,105.56 23.14,199.75 69.43,282.58 46.29,82.83 110.84,147.38 193.67,193.67 82.82,46.28 177.02,69.43 282.58,69.43 170.53,0 313.44,-67.4 428.75,-202.2l253.35 233.86c-81.2,99.07 -181.89,174.59 -302.07,226.56 -120.18,51.97 -254.16,77.95 -401.95,77.95zm1542.4 -1763.71c168.9,0 320.34,37.76 454.32,113.28 133.99,75.51 239.15,180.26 315.48,314.25 76.33,133.98 114.49,285.42 114.49,454.33 0,168.9 -38.16,320.34 -114.49,454.32 -76.33,133.99 -181.49,238.74 -315.48,314.26 -133.98,75.51 -285.42,113.27 -454.32,113.27 -151.04,0 -287.05,-25.98 -408.04,-77.95 -121,-51.97 -222.09,-127.49 -303.29,-226.56l250.91 -233.86c120.18,134.8 267.16,202.2 440.93,202.2 125.05,0 231.02,-36.55 317.91,-109.63 86.88,-73.08 143.32,-171.33 169.3,-294.76l-691.84 0 0 -302.08 686.97 0c-27.61,-116.93 -84.45,-210.31 -170.52,-280.14 -86.08,-69.84 -190.02,-104.75 -311.82,-104.75 -173.77,0 -320.75,67.39 -440.93,202.19l-250.91 -233.86c81.2,-99.07 182.29,-174.59 303.29,-226.56 120.99,-51.97 257,-77.95 408.04,-77.95zm1966.27 29.23c151.03,0 282.18,25.17 393.42,75.52 111.25,50.34 196.92,121.8 257.01,214.37 60.09,92.57 90.13,202.2 90.13,328.87 0,125.05 -30.04,234.27 -90.13,327.65 -60.09,93.39 -145.76,164.84 -257.01,214.38 -111.24,49.53 -242.39,74.3 -393.42,74.3l-343.49 0 0 470.16 -394.64 0 0 -1705.25 738.13 0zm-21.93 913.53c118.56,0 208.69,-25.58 270.41,-76.74 61.71,-51.16 92.57,-123.83 92.57,-218.03 0,-95.82 -30.86,-169.3 -92.57,-220.46 -61.72,-51.16 -151.85,-76.74 -270.41,-76.74l-321.56 0 0 591.97 321.56 0zm4365.81 820.95c-173.78,0 -330.9,-37.76 -471.38,-113.27 -140.48,-75.52 -250.92,-180.27 -331.31,-314.26 -80.39,-133.98 -120.58,-285.42 -120.58,-454.32 0,-168.91 40.19,-320.35 120.58,-454.33 80.39,-133.99 190.83,-238.74 331.31,-314.25 140.48,-75.52 298.42,-113.28 473.81,-113.28 147.79,0 281.37,25.98 400.74,77.95 119.36,51.97 219.65,126.68 300.85,224.12l-253.35 233.86c-115.31,-133.17 -258.22,-199.75 -428.75,-199.75 -105.56,0 -199.76,23.14 -282.58,69.42 -82.83,46.29 -147.38,110.85 -193.67,193.67 -46.29,82.83 -69.43,177.02 -69.43,282.59 0,105.56 23.14,199.75 69.43,282.58 46.29,82.83 110.84,147.38 193.67,193.67 82.82,46.28 177.02,69.43 282.58,69.43 170.53,0 313.44,-67.4 428.75,-202.2l253.35 233.86c-81.2,99.07 -181.89,174.59 -302.07,226.56 -120.18,51.97 -254.16,77.95 -401.95,77.95zm2560.67 -1734.48l0 1705.25 -394.64 0 0 -699.15 -774.67 0 0 699.15 -394.64 0 0 -1705.25 394.64 0 0 672.36 774.67 0 0 -672.36 394.64 0zm1286.62 560.3c207.87,0 367.44,46.28 478.68,138.85 111.25,92.57 166.87,229.81 166.87,411.7 0,193.26 -61.3,340.64 -183.92,442.15 -122.61,101.5 -295.17,152.25 -517.66,152.25l-769.8 0 0 -1705.25 392.21 0 0 560.3 433.62 0zm-77.96 852.62c102.32,0 182.3,-25.17 239.95,-75.52 57.66,-50.34 86.48,-123.42 86.48,-219.24 0,-177.02 -108.81,-265.53 -326.43,-265.53l-355.66 0 0 560.29 355.66 0zm940.32 -1412.92l392.21 0 0 1705.25 -392.21 0 0 -1705.25zm850.56 0l392.21 0 0 1110.85 813.64 -1110.85 370.29 0 0 1705.25 -389.78 0 0 -1108.41 -813.64 1108.41 -372.72 0 0 -1705.25zm786.85 -109.62c-311.82,0 -469.35,-124.24 -472.6,-372.72l270.4 0c3.25,118.55 70.65,177.83 202.2,177.83 64.96,0 114.49,-15.02 148.6,-45.06 34.1,-30.05 51.97,-74.31 53.59,-132.77l270.41 0c-1.63,121.8 -41.42,214.37 -119.37,277.71 -77.96,63.34 -195.7,95.01 -353.23,95.01z"/>
 </g>
</svg>
